<svg width="232" height="30" viewBox="0 0 232 30" fill="none" xmlns="http://www.w3.org/2000/svg">
<g filter="url(#filter0_d_3_780)">
<path d="M23.61 0.849999L23.61 22H17.73V13.51H10.56V22H4.68L4.68 0.849999H10.56V8.8H17.73V0.849999L23.61 0.849999ZM32.8549 5.56V9.01L39.6049 9.01V13.48L32.8549 13.48V17.29L40.5049 17.29V22H26.9749L26.9749 0.849999H40.5049V5.56L32.8549 5.56ZM56.7905 18.55H49.2905L48.1505 22H41.9705L49.6805 0.849999L56.4605 0.849999L64.1405 22H57.9305L56.7905 18.55ZM55.3205 14.05L53.0405 7.21L50.7905 14.05H55.3205ZM71.937 17.5H78.507V22L66.057 22V0.849999H71.937V17.5ZM96.7233 0.849999V5.53H91.0833V22H85.2033V5.53H79.6233V0.849999L96.7233 0.849999ZM117.829 0.849999V22H111.949V13.51H104.779V22H98.8988V0.849999H104.779V8.8H111.949V0.849999L117.829 0.849999ZM140.424 0.849999L132.984 15.28V22H127.074V15.28L119.634 0.849999H126.354L130.074 9.01L133.794 0.849999H140.424ZM172.661 0.849999V22H166.781V10.33L162.791 22H157.871L153.851 10.24V22H147.971V0.849999H155.081L160.391 14.59L165.581 0.849999H172.661ZM181.888 5.56V9.01H188.638V13.48H181.888V17.29H189.538V22H176.008V0.849999L189.538 0.849999V5.56H181.888ZM205.824 18.55H198.324L197.184 22L191.004 22L198.714 0.849999H205.494L213.174 22H206.964L205.824 18.55ZM204.354 14.05L202.074 7.21L199.824 14.05H204.354ZM220.97 17.5L227.54 17.5V22H215.09V0.849999H220.97V17.5Z" fill="#0FAD4E"/>
</g>
<defs>
<filter id="filter0_d_3_780" x="0.680054" y="0.850098" width="230.86" height="29.1499" filterUnits="userSpaceOnUse" color-interpolation-filters="sRGB">
<feFlood flood-opacity="0" result="BackgroundImageFix"/>
<feColorMatrix in="SourceAlpha" type="matrix" values="0 0 0 0 0 0 0 0 0 0 0 0 0 0 0 0 0 0 127 0" result="hardAlpha"/>
<feOffset dy="4"/>
<feGaussianBlur stdDeviation="2"/>
<feComposite in2="hardAlpha" operator="out"/>
<feColorMatrix type="matrix" values="0 0 0 0 0 0 0 0 0 0 0 0 0 0 0 0 0 0 0.25 0"/>
<feBlend mode="normal" in2="BackgroundImageFix" result="effect1_dropShadow_3_780"/>
<feBlend mode="normal" in="SourceGraphic" in2="effect1_dropShadow_3_780" result="shape"/>
</filter>
</defs>
</svg>
