<svg width="100" height="101" viewBox="0 0 100 101" fill="none" xmlns="http://www.w3.org/2000/svg">
<g clip-path="url(#clip0_3_702)">
<path d="M84.3738 4.27422V96.226C84.3738 98.4492 82.573 100.25 80.3496 100.25H12.6535C10.4302 100.25 8.62927 98.4494 8.62927 96.226V4.27422C8.62927 2.05078 10.4301 0.25 12.6535 0.25H29.3054V6.075C29.3054 7.1877 30.2068 8.08711 31.3176 8.08711H61.8869C62.9976 8.08711 63.899 7.1877 63.899 6.075V0.25H80.3498C82.5728 0.25 84.3738 2.05078 84.3738 4.27422Z" fill="#FEB618"/>
<path d="M84.3748 4.27422V96.226C84.3748 98.4492 82.5721 100.25 80.3506 100.25H76.3889C78.6102 100.25 80.4131 98.4494 80.4131 96.226V4.27422C80.4129 2.05078 78.6102 0.25 76.3889 0.25H80.3506C82.5719 0.25 84.3748 2.05078 84.3748 4.27422Z" fill="#FB9927"/>
<path d="M84.3748 23.1696V45.918C82.6484 46.7932 80.6967 47.2862 78.6283 47.2862C71.5922 47.2862 65.8859 41.5799 65.8859 34.5438C65.8859 27.5055 71.5922 21.8014 78.6283 21.8014C80.6967 21.8014 82.6484 22.2944 84.3748 23.1696Z" fill="#FB9927"/>
<path d="M77.8385 8.21982V92.1413C77.8385 93.1835 76.9933 94.0286 75.9492 94.0286H17.0539C16.0095 94.0286 15.1625 93.1835 15.1625 92.1413V8.21982C15.1625 7.17764 16.0095 6.33057 17.0539 6.33057H29.3215C29.4463 7.32256 30.2933 8.08721 31.3174 8.08721H61.8867C62.9109 8.08721 63.758 7.32256 63.8826 6.33057H75.949C76.9933 6.33057 77.8385 7.17764 77.8385 8.21982Z" fill="#F8F3F1"/>
<path d="M26.8838 6.33057V11.894C26.8838 13.0048 27.7852 13.9062 28.8959 13.9062H30.0387V16.6022C30.0387 19.1798 32.1352 21.2763 34.7127 21.2763H58.2902C60.8678 21.2763 62.9643 19.1798 62.9643 16.6022V13.906H64.107C65.2178 13.906 66.1191 13.0046 66.1191 11.8938V6.33057H26.8838ZM59.9461 16.6022C59.9461 17.5157 59.2037 18.2581 58.2902 18.2581H34.7127C33.7992 18.2581 33.0568 17.5157 33.0568 16.6022V13.906H59.9461V16.6022Z" fill="#EFE2DD"/>
<path d="M77.8399 8.21956V92.1404C77.8399 93.183 76.9936 94.0293 75.951 94.0293H71.5781C72.6207 94.0293 73.467 93.183 73.467 92.1404V8.21956C73.467 7.17698 72.6207 6.33069 71.5781 6.33069H75.9508C76.9936 6.33069 77.8399 7.17678 77.8399 8.21956Z" fill="#EFE2DD"/>
<path d="M70.868 28.485H22.135C21.3016 28.485 20.626 27.8094 20.626 26.976C20.626 26.1426 21.3016 25.467 22.135 25.467H70.868C71.7014 25.467 72.377 26.1426 72.377 26.976C72.377 27.8094 71.7014 28.485 70.868 28.485Z" fill="#EFE2DD"/>
<path d="M23.4035 86.819C22.606 86.819 21.9398 86.194 21.8978 85.3886C21.8545 84.5563 22.4939 83.8464 23.3263 83.803C24.4232 83.7458 25.5033 83.4864 26.5176 83.062C26.4785 82.6649 26.4898 82.2552 26.5535 81.8411C26.9328 79.3681 28.1453 77.0429 29.9676 75.2934C31.7015 73.629 33.3347 73.9345 34.2851 74.7759C35.1584 75.5491 35.4892 76.7788 35.1279 77.9087C34.4176 80.13 33.0683 82.0903 31.323 83.6036C31.7674 83.435 32.1549 83.1913 32.2926 83.1003C33.0595 82.5927 34.2054 81.9665 35.2978 82.3884C35.5957 82.5034 36.0867 82.7811 36.3797 83.4157C36.4933 83.3845 36.6301 83.3343 36.7717 83.2604C37.6107 82.8231 38.4136 82.3034 39.1586 81.7159C39.8551 81.1669 40.7785 81.0729 41.5687 81.471C42.2217 81.8001 42.6613 82.3997 42.7851 83.0979C43.4832 82.7317 44.1365 82.2843 44.733 81.763C45.5398 81.0577 46.7392 81.0126 47.5847 81.6559C50.0568 83.5358 53.931 83.1917 57.3681 82.7216C58.1949 82.6083 58.9549 83.1864 59.0677 84.0122C59.1806 84.838 58.6029 85.5989 57.7771 85.7118C53.9377 86.2374 49.5968 86.6007 46.2635 84.4157C45.4222 85.0864 44.5031 85.6499 43.524 86.095C43.2404 86.2241 42.5761 86.5265 41.7988 86.3766C40.9812 86.2196 40.342 85.6335 40.0232 84.8231C39.4263 85.2311 38.8051 85.6036 38.1662 85.9366C37.7474 86.155 36.2799 86.8224 34.9789 86.2468C34.6152 86.0858 34.3076 85.8466 34.0695 85.5446C34.0342 85.5671 33.9969 85.5911 33.9578 85.6171C31.6549 87.1411 29.3361 87.1825 27.8406 85.7901C26.4705 86.3794 24.9967 86.7382 23.483 86.8171C23.4566 86.8184 23.4299 86.819 23.4035 86.819ZM39.8031 83.4886C39.8029 83.4903 39.8029 83.4921 39.8029 83.4938C39.8029 83.4915 39.8031 83.4897 39.8031 83.4886ZM32.0976 77.4327C32.0845 77.4448 32.0711 77.4575 32.0574 77.4706C31.099 78.3907 30.3691 79.5247 29.9273 80.7587C30.8722 79.804 31.6258 78.6724 32.0976 77.4327Z" fill="#EFE2DD"/>
<path d="M38.31 48.6774H38.1059C37.2725 48.6774 36.5969 48.0018 36.5969 47.1684C36.5969 46.335 37.2725 45.6594 38.1059 45.6594H38.31C39.1434 45.6594 39.819 46.335 39.819 47.1684C39.819 48.0018 39.1434 48.6774 38.31 48.6774Z" fill="#EFE2DD"/>
<path d="M43.0867 48.6774H42.8826C42.0492 48.6774 41.3737 48.0018 41.3737 47.1684C41.3737 46.335 42.0492 45.6594 42.8826 45.6594H43.0867C43.9201 45.6594 44.5957 46.335 44.5957 47.1684C44.5957 48.0018 43.9201 48.6774 43.0867 48.6774Z" fill="#EFE2DD"/>
<path d="M47.8634 48.6774H47.6593C46.8259 48.6774 46.1503 48.0018 46.1503 47.1684C46.1503 46.335 46.8259 45.6594 47.6593 45.6594H47.8634C48.6968 45.6594 49.3723 46.335 49.3723 47.1684C49.3723 48.0018 48.6968 48.6774 47.8634 48.6774Z" fill="#EFE2DD"/>
<path d="M52.6401 48.6774H52.436C51.6026 48.6774 50.927 48.0018 50.927 47.1684C50.927 46.335 51.6026 45.6594 52.436 45.6594H52.6401C53.4735 45.6594 54.1491 46.335 54.1491 47.1684C54.1491 48.0018 53.4735 48.6774 52.6401 48.6774Z" fill="#EFE2DD"/>
<path d="M70.4235 42.7588H37.559C36.7256 42.7588 36.05 42.0832 36.05 41.2498C36.05 40.4164 36.7256 39.7408 37.559 39.7408H70.4235C71.2569 39.7408 71.9325 40.4164 71.9325 41.2498C71.9327 42.0832 71.2569 42.7588 70.4235 42.7588Z" fill="#EFE2DD"/>
<path d="M46.417 37.0923H37.559C36.7256 37.0923 36.05 36.4167 36.05 35.5833C36.05 34.7499 36.7256 34.0743 37.559 34.0743H46.417C47.2504 34.0743 47.926 34.7499 47.926 35.5833C47.926 36.4167 47.2504 37.0923 46.417 37.0923Z" fill="#EFE2DD"/>
<path d="M38.31 68.8405H38.1059C37.2725 68.8405 36.5969 68.1649 36.5969 67.3315C36.5969 66.4981 37.2725 65.8225 38.1059 65.8225H38.31C39.1434 65.8225 39.819 66.4981 39.819 67.3315C39.8192 68.1649 39.1434 68.8405 38.31 68.8405Z" fill="#EFE2DD"/>
<path d="M43.0867 68.8405H42.8826C42.0492 68.8405 41.3737 68.1649 41.3737 67.3315C41.3737 66.4981 42.0492 65.8225 42.8826 65.8225H43.0867C43.9201 65.8225 44.5957 66.4981 44.5957 67.3315C44.5957 68.1649 43.9201 68.8405 43.0867 68.8405Z" fill="#EFE2DD"/>
<path d="M47.8634 68.8405H47.6593C46.8259 68.8405 46.1503 68.1649 46.1503 67.3315C46.1503 66.4981 46.8259 65.8225 47.6593 65.8225H47.8634C48.6968 65.8225 49.3723 66.4981 49.3723 67.3315C49.3725 68.1649 48.6968 68.8405 47.8634 68.8405Z" fill="#EFE2DD"/>
<path d="M52.6401 68.8405H52.436C51.6026 68.8405 50.927 68.1649 50.927 67.3315C50.927 66.4981 51.6026 65.8225 52.436 65.8225H52.6401C53.4735 65.8225 54.1491 66.4981 54.1491 67.3315C54.1491 68.1649 53.4735 68.8405 52.6401 68.8405Z" fill="#EFE2DD"/>
<path d="M70.4235 62.9219H37.559C36.7256 62.9219 36.05 62.2463 36.05 61.4129C36.05 60.5795 36.7256 59.9039 37.559 59.9039H70.4235C71.2569 59.9039 71.9325 60.5795 71.9325 61.4129C71.9327 62.2463 71.2569 62.9219 70.4235 62.9219Z" fill="#EFE2DD"/>
<path d="M46.417 57.2553H37.559C36.7256 57.2553 36.05 56.5797 36.05 55.7463C36.05 54.9129 36.7256 54.2373 37.559 54.2373H46.417C47.2504 54.2373 47.926 54.9129 47.926 55.7463C47.926 56.5797 47.2504 57.2553 46.417 57.2553Z" fill="#EFE2DD"/>
<path d="M58.2907 19.4652H34.7125C32.1352 19.4652 30.0383 17.3685 30.0383 14.7909V9.68C30.0383 8.84661 30.7139 8.17102 31.5473 8.17102C32.3807 8.17102 33.0563 8.84661 33.0563 9.68V14.7911C33.0563 15.7042 33.7993 16.4472 34.7124 16.4472H58.2905C59.2036 16.4472 59.9465 15.7042 59.9465 14.7911V9.68C59.9465 8.84661 60.6221 8.17102 61.4555 8.17102C62.2889 8.17102 62.9645 8.84661 62.9645 9.68V14.7911C62.9647 17.3685 60.8678 19.4652 58.2907 19.4652Z" fill="#FCA62F"/>
<path d="M64.1072 10.8873H28.8959C27.7846 10.8873 26.8838 9.98652 26.8838 8.8752V0.25H66.1191V8.8752C66.1191 9.98633 65.2183 10.8873 64.1072 10.8873Z" fill="#12C65A"/>
<path d="M66.1191 0.25V8.87578C66.1191 9.98652 65.2177 10.8879 64.107 10.8879H60.1453C61.256 10.8879 62.1574 9.98652 62.1574 8.87578V0.25H66.1191Z" fill="#0FAD4E"/>
<path d="M34.0571 7.07778H33.8631C33.0297 7.07778 32.3541 6.4022 32.3541 5.5688C32.3541 4.7354 33.0297 4.05981 33.8631 4.05981H34.0571C34.8905 4.05981 35.566 4.7354 35.566 5.5688C35.566 6.4022 34.8905 7.07778 34.0571 7.07778Z" fill="white"/>
<path d="M59.14 7.07778H58.9461C58.1127 7.07778 57.4371 6.4022 57.4371 5.5688C57.4371 4.7354 58.1127 4.05981 58.9461 4.05981H59.14C59.9734 4.05981 60.649 4.7354 60.649 5.5688C60.649 6.4022 59.9734 7.07778 59.14 7.07778Z" fill="white"/>
<path d="M78.6286 43.7422C85.6659 43.7422 91.3706 38.0374 91.3706 31.0002C91.3706 23.963 85.6659 18.2582 78.6286 18.2582C71.5914 18.2582 65.8867 23.963 65.8867 31.0002C65.8867 38.0374 71.5914 43.7422 78.6286 43.7422Z" fill="#12C65A"/>
<path d="M91.3707 31.0006C91.3707 38.0368 85.6664 43.743 78.6283 43.743C77.9623 43.743 77.3084 43.6926 76.6686 43.5942C82.7752 42.6504 87.4512 37.371 87.4512 31.0006C87.4512 24.6284 82.7752 19.3506 76.6686 18.409C77.3084 18.3084 77.9623 18.2581 78.6283 18.2581C85.6664 18.2581 91.3707 23.9624 91.3707 31.0006Z" fill="#0FAD4E"/>
<path d="M75.8492 36.5334C75.4631 36.5334 75.0768 36.3859 74.7822 36.0914L72.4348 33.7439C71.8453 33.1546 71.8453 32.1992 72.4348 31.6097C73.024 31.0205 73.9795 31.0205 74.5689 31.6097L75.8492 32.89L82.8305 25.9087C83.4197 25.3195 84.3752 25.3195 84.9646 25.9087C85.5541 26.498 85.5541 27.4535 84.9646 28.0429L76.9164 36.0912C76.6215 36.3859 76.2353 36.5334 75.8492 36.5334Z" fill="white"/>
<path d="M29.8768 43.4302H24.0418C23.4862 43.4302 23.0358 42.9798 23.0358 42.4241V36.5892C23.0358 36.0335 23.4862 35.5831 24.0418 35.5831H29.8768C30.4324 35.5831 30.8828 36.0335 30.8828 36.5892V42.4241C30.8828 42.9796 30.4324 43.4302 29.8768 43.4302Z" fill="#B5CCBE"/>
<path d="M29.8768 63.5933H24.0418C23.4862 63.5933 23.0358 63.1429 23.0358 62.5872V56.7523C23.0358 56.1966 23.4862 55.7462 24.0418 55.7462H29.8768C30.4324 55.7462 30.8828 56.1966 30.8828 56.7523V62.5872C30.8828 63.1429 30.4324 63.5933 29.8768 63.5933Z" fill="#B5CCBE"/>
</g>
<defs>
<clipPath id="clip0_3_702">
<rect width="100" height="100" fill="white" transform="translate(0 0.25)"/>
</clipPath>
</defs>
</svg>
