<svg width="129" height="100" viewBox="0 0 129 100" fill="none" xmlns="http://www.w3.org/2000/svg">
<path d="M1.29982 97.7747C1.89717 98.5214 2.66629 99.1125 3.54155 99.4975C4.41681 99.8826 5.37224 100.05 6.3263 99.986C7.28036 99.9218 8.20474 99.6278 9.02056 99.129C9.83637 98.6302 10.5194 97.9415 11.0114 97.1215L19.9284 82.2599L20.0525 82.1854C23.4795 80.1292 27.3199 78.8584 31.2971 78.4646C35.2742 78.0708 39.2892 78.5637 43.053 79.9079H43.053C55.3643 84.3048 68.7943 84.4477 81.1964 80.3137L81.1964 80.3136C89.6411 77.4987 97.2672 72.657 103.407 66.2123C109.547 59.7675 114.015 51.916 116.418 43.345L128.57 0.00012207L114.67 7.9065C107.865 11.7774 100.334 14.2016 92.5487 15.0272C84.7633 15.8528 76.8913 15.0621 69.4257 12.7045L69.4257 12.7045C63.7274 10.905 57.6789 10.5084 51.7944 11.5483C45.91 12.5881 40.3637 15.0337 35.6273 18.6771L35.6273 18.6772C31.3973 21.931 27.9189 26.059 25.4294 30.7795C22.94 35.5001 21.4981 40.702 21.202 46.0305L20.2387 63.3708C20.034 67.0558 19.0769 70.6598 17.4264 73.9608L15.494 77.8255L2.02515 89.6108C0.876063 90.6162 0.159279 92.0263 0.0241563 93.5472C-0.110966 95.0681 0.345995 96.5824 1.29982 97.7747Z" fill="#A0CC00"/>
<path d="M68.5992 66.8682C68.2531 67.2821 67.7624 67.5487 67.2267 67.6136C66.6911 67.6785 66.1509 67.5368 65.716 67.2175C61.9565 64.4758 57.6286 62.6148 53.0525 61.7721C48.4765 60.9295 43.7695 61.1267 39.28 62.3493L29.3929 65.0423C29.1242 65.1155 28.8436 65.1351 28.5673 65.0998C28.291 65.0646 28.0244 64.9752 27.7827 64.8369C27.5409 64.6985 27.3288 64.5139 27.1584 64.2936C26.988 64.0732 26.8627 63.8215 26.7897 63.5527L26.7389 63.3657C26.5914 62.8233 26.6655 62.2445 26.9446 61.7566C27.2238 61.2687 27.6853 60.9117 28.2277 60.764L38.1132 58.0714C43.2491 56.6726 48.6339 56.4478 53.8684 57.4137C59.103 58.3797 64.0529 60.5115 68.3513 63.6511C68.5846 63.8226 68.7803 64.0401 68.9264 64.2901C69.0725 64.5401 69.1658 64.8173 69.2007 65.1048C69.2355 65.3922 69.2112 65.6837 69.1291 65.9614C69.0469 66.2391 68.9089 66.497 68.7233 66.7192L68.5992 66.8682Z" fill="#85B200"/>
<path d="M93.021 51.338C92.7332 51.8012 92.2775 52.1353 91.7491 52.2704C91.2207 52.4054 90.6605 52.331 90.1858 52.0626C79.6202 46.0122 67.2174 44.0034 55.2822 46.4096L48.5447 47.7572C48.4997 47.7662 48.4551 47.7766 48.4108 47.7885L42.09 49.4853C41.5469 49.6311 40.9681 49.5551 40.481 49.2742C39.9939 48.9933 39.6383 48.5303 39.4925 47.9873L39.4423 47.7999C39.3701 47.531 39.3515 47.2505 39.3878 46.9744C39.424 46.6984 39.5142 46.4321 39.6533 46.1909C39.7924 45.9497 39.9777 45.7383 40.1985 45.5687C40.4193 45.3991 40.6714 45.2747 40.9403 45.2025L47.3306 43.4871L47.6039 43.4231L54.4126 42.0613C67.389 39.4449 80.874 41.6261 92.3639 48.1998C92.6135 48.3408 92.832 48.5309 93.0063 48.7586C93.1806 48.9862 93.307 49.2468 93.378 49.5245C93.449 49.8023 93.4631 50.0916 93.4194 50.3749C93.3757 50.6583 93.2752 50.9299 93.1239 51.1734L93.021 51.338Z" fill="#85B200"/>
<path d="M99.5365 41.5308C97.2157 41.5302 94.8979 41.3648 92.6005 41.0358L86.1301 40.1115L73.5204 38.2081C72.9644 38.1242 72.4645 37.8228 72.1307 37.3703C71.7969 36.9178 71.6565 36.3512 71.7404 35.7952L71.7693 35.6036C71.8109 35.3283 71.9062 35.0639 72.05 34.8254C72.1937 34.587 72.3831 34.3791 72.6071 34.2138C72.8312 34.0485 73.0856 33.929 73.3559 33.862C73.6261 33.7951 73.9069 33.782 74.1823 33.8236L86.7745 35.7243L93.2276 36.6458C98.2517 37.3687 103.363 37.221 108.337 36.209C108.87 36.1037 109.422 36.2077 109.881 36.4994C110.339 36.791 110.667 37.248 110.797 37.7753L110.844 37.9628C110.913 38.2418 110.925 38.5319 110.879 38.8156C110.833 39.0993 110.73 39.3707 110.576 39.6133C110.422 39.856 110.22 40.065 109.983 40.2276C109.746 40.3901 109.479 40.503 109.197 40.5592C106.017 41.2049 102.781 41.5304 99.5365 41.5308Z" fill="#85B200"/>
<path d="M34.6021 51.2746C34.1326 51.5828 33.56 51.692 33.01 51.5785C32.4599 51.4649 31.9775 51.1377 31.6684 50.6688L30.8417 49.4144C28.4657 45.8761 27.5577 41.5529 28.3094 37.3576C28.3631 37.0578 28.4806 36.773 28.654 36.5226C28.8275 36.2722 29.0528 36.0621 29.3146 35.9065C29.5765 35.7509 29.8688 35.6535 30.1716 35.6209C30.4744 35.5882 30.7807 35.6211 31.0697 35.7174L31.255 35.7791C31.7404 35.9446 32.1501 36.2792 32.4093 36.7218C32.6684 37.1644 32.7597 37.6854 32.6664 38.1897C32.136 41.2424 32.8039 44.3821 34.5311 46.9545L35.0762 47.7719L35.3769 48.23C35.5297 48.4628 35.6351 48.7233 35.6872 48.9969C35.7392 49.2704 35.7369 49.5515 35.6803 49.8241C35.6238 50.0968 35.5141 50.3556 35.3575 50.5858C35.2009 50.816 35.0005 51.0132 34.7677 51.1659L34.6021 51.2746Z" fill="#85B200"/>
<path d="M51.0655 43.2124H50.8717C50.3093 43.2124 49.77 42.989 49.3724 42.5914C48.9748 42.1938 48.7514 41.6545 48.7514 41.0922V32.6075C48.7465 27.7392 49.988 22.9507 52.3577 18.698C52.4998 18.4411 52.6936 18.2163 52.9268 18.0379C53.1601 17.8595 53.4278 17.7314 53.713 17.6617C53.9982 17.5919 54.2948 17.582 54.5841 17.6326C54.8733 17.6832 55.149 17.7931 55.3936 17.9555L55.5558 18.0637C56 18.3617 56.3154 18.8161 56.4392 19.3364C56.5629 19.8567 56.486 20.4046 56.2236 20.8706C54.2274 24.4601 53.1817 28.5002 53.1858 32.6075V41.0922C53.1858 41.6545 52.9624 42.1938 52.5648 42.5914C52.1671 42.989 51.6279 43.2124 51.0655 43.2124Z" fill="#85B200"/>
<path d="M67.6827 34.6419L67.4989 34.5806C67.2347 34.4926 66.9905 34.3534 66.7801 34.171C66.5698 33.9886 66.3974 33.7665 66.2729 33.5174C66.1484 33.2684 66.0741 32.9973 66.0543 32.7195C66.0346 32.4418 66.0698 32.1629 66.1578 31.8987L66.6028 30.5637C67.9581 26.5312 70.8334 23.1868 74.6169 21.2419C74.889 21.1027 75.1881 21.0239 75.4935 21.0109C75.7989 20.998 76.1035 21.0512 76.3865 21.1669C76.6694 21.2826 76.924 21.4581 77.1328 21.6814C77.3417 21.9046 77.4998 22.1703 77.5963 22.4604L77.6576 22.6441C77.8155 23.1299 77.7943 23.6562 77.5979 24.1277C77.4015 24.5992 77.0427 24.9848 76.5866 25.2148C73.8596 26.6325 71.7887 29.0525 70.8096 31.9659L70.3645 33.3009C70.1867 33.8344 69.8043 34.2753 69.3013 34.5268C68.7984 34.7783 68.2162 34.8197 67.6827 34.6419Z" fill="#85B200"/>
<path d="M128.57 0L114.871 19.076C110.191 25.5927 104.027 30.9015 96.8886 34.5633C89.7502 38.225 81.8425 40.1345 73.8196 40.1336C65.092 40.1337 56.5131 42.3939 48.9185 46.6941C41.3238 50.9944 34.9722 57.1881 30.4822 64.6722L19.9285 82.2599L11.0127 97.1205C10.5722 97.855 9.97791 98.4853 9.27059 98.9681C8.56328 99.4509 7.75976 99.7747 6.91532 99.9173C6.07089 100.06 5.2056 100.018 4.37898 99.7939C3.55236 99.5701 2.78405 99.1699 2.12691 98.6207C1.46977 98.0716 0.939398 97.3866 0.572299 96.6129C0.2052 95.8392 0.0100851 94.9951 0.000380687 94.1388C-0.00932368 93.2825 0.166613 92.4342 0.516084 91.6524C0.865555 90.8705 1.38026 90.1737 2.02479 89.6098L15.4941 77.8255L24.6815 60.2849C29.2671 51.5323 36.1602 44.2012 44.6142 39.0858C53.0681 33.9705 62.7606 31.2658 72.6418 31.2649C85.8228 31.2648 98.5512 26.457 108.441 17.7429L128.57 0Z" fill="#85B200"/>
<path d="M19.9285 82.2598L11.0127 97.1204C10.5722 97.8549 9.97791 98.4852 9.27059 98.968C8.56328 99.4508 7.75976 99.7746 6.91532 99.9172C6.07089 100.06 5.2056 100.018 4.37898 99.7938C3.55236 99.57 2.78405 99.1698 2.12691 98.6206C1.46977 98.0715 0.939398 97.3865 0.572299 96.6128C0.2052 95.8391 0.0100851 94.995 0.000380687 94.1387C-0.00932368 93.2824 0.166613 92.4341 0.516084 91.6523C0.865555 90.8704 1.38026 90.1736 2.02479 89.6097L15.4941 77.8254L19.9285 82.2598Z" fill="#719600"/>
</svg>
