<svg width="182" height="19" viewBox="0 0 182 19" fill="none" xmlns="http://www.w3.org/2000/svg">
<path d="M15.38 0.929999V19H12.416V11.096H3.914L3.914 19H0.95L0.95 0.929999H3.914V8.678H12.416L12.416 0.929999L15.38 0.929999ZM22.246 3.322V8.626H28.486V11.044H22.246V16.582H29.266V19H19.282V0.903999H29.266V3.322H22.246ZM43.8108 15.308H36.2448L34.9448 19H31.8508L38.3248 0.903999H41.7568L48.2308 19H45.1108L43.8108 15.308ZM42.9788 12.89L40.0408 4.492L37.0768 12.89H42.9788ZM54.0097 16.608H60.1197V19H51.0457V0.929999H54.0097V16.608ZM74.2724 0.929999V3.348H69.4624V19H66.4984V3.348H61.6624V0.929999H74.2724ZM91.7042 0.929999V19H88.7402V11.096H80.2382V19H77.2742V0.929999L80.2382 0.929999V8.678H88.7402V0.929999H91.7042ZM108.996 0.929999L103.016 12.448V19H100.052V12.448L94.0463 0.929999H97.3483L101.534 9.796L105.72 0.929999H108.996ZM137.134 0.929999V19H134.17V6.624L128.658 19H126.604L121.066 6.624V19H118.102V0.929999H121.3L127.644 15.1L133.962 0.929999H137.134ZM143.994 3.322V8.626H150.234V11.044H143.994V16.582H151.014V19H141.03V0.903999L151.014 0.903999V3.322H143.994ZM165.559 15.308L157.993 15.308L156.693 19H153.599L160.073 0.903999H163.505L169.979 19H166.859L165.559 15.308ZM164.727 12.89L161.789 4.492L158.825 12.89L164.727 12.89ZM175.758 16.608H181.868V19H172.794V0.929999L175.758 0.929999V16.608Z" fill="#333333"/>
</svg>
