<svg width="306" height="37" viewBox="0 0 306 37" fill="none" xmlns="http://www.w3.org/2000/svg">
<g filter="url(#filter0_d_3_780)">
<path d="M29.48 0.799998L29.48 29H21.64V17.68H12.08V29H4.24L4.24 0.799998H12.08L12.08 11.4H21.64V0.799998H29.48ZM41.8066 7.08V11.68H50.8066V17.64H41.8066V22.72H52.0066V29H33.9666V0.799998L52.0066 0.799998V7.08H41.8066ZM73.7206 24.4L63.7206 24.4L62.2006 29H53.9606L64.2406 0.799998H73.2806L83.5206 29H75.2406L73.7206 24.4ZM71.7606 18.4L68.7206 9.28L65.7206 18.4L71.7606 18.4ZM93.9159 23H102.676V29H86.0759V0.799998H93.9159V23ZM126.964 0.799998V7.04H119.444V29H111.604V7.04H104.164V0.799998L126.964 0.799998ZM155.105 0.799998V29H147.265V17.68H137.705V29H129.865V0.799998H137.705V11.4H147.265V0.799998H155.105ZM185.232 0.799998L175.312 20.04V29H167.432V20.04L157.512 0.799998H166.472L171.432 11.68L176.392 0.799998L185.232 0.799998ZM228.215 0.799998V29H220.375V13.44L215.055 29H208.495L203.135 13.32V29H195.295V0.799998H204.775L211.855 19.12L218.775 0.799998H228.215ZM240.518 7.08V11.68H249.518V17.64H240.518V22.72H250.718V29H232.678V0.799998L250.718 0.799998V7.08H240.518ZM272.432 24.4H262.432L260.912 29H252.672L262.952 0.799998H271.992L282.232 29H273.952L272.432 24.4ZM270.472 18.4L267.432 9.28L264.432 18.4H270.472ZM292.627 23H301.387V29H284.787V0.799998H292.627V23Z" fill="#EFEDDD"/>
</g>
<defs>
<filter id="filter0_d_3_780" x="0.23999" y="0.800049" width="305.147" height="36.2" filterUnits="userSpaceOnUse" color-interpolation-filters="sRGB">
<feFlood flood-opacity="0" result="BackgroundImageFix"/>
<feColorMatrix in="SourceAlpha" type="matrix" values="0 0 0 0 0 0 0 0 0 0 0 0 0 0 0 0 0 0 127 0" result="hardAlpha"/>
<feOffset dy="4"/>
<feGaussianBlur stdDeviation="2"/>
<feComposite in2="hardAlpha" operator="out"/>
<feColorMatrix type="matrix" values="0 0 0 0 0 0 0 0 0 0 0 0 0 0 0 0 0 0 0.25 0"/>
<feBlend mode="normal" in2="BackgroundImageFix" result="effect1_dropShadow_3_780"/>
<feBlend mode="normal" in="SourceGraphic" in2="effect1_dropShadow_3_780" result="shape"/>
</filter>
</defs>
</svg>
